<?xml version="1.0" encoding="UTF-8"?>
<svg width="200px" height="200px" viewBox="0 0 200 200" version="1.1" xmlns="http://www.w3.org/2000/svg" xmlns:xlink="http://www.w3.org/1999/xlink">
    <!-- Generator: Sketch 54.1 (76490) - https://sketchapp.com -->
    <title>sul-ross-st</title>
    <desc>Created with Sketch.</desc>
    <g id="sul-ross-st" stroke="none" stroke-width="1" fill="none" fill-rule="evenodd">
        <g id="sul-ross-st_BGL">
            <g id="sul-ross-st" transform="translate(0.000000, 10.000000)">
                <path d="M56.8710359,0.0824524313 C73.0084567,0.0866807611 89.1479915,0.088794926 105.285412,0.0824524313 C106.219873,0.0697674419 107.427061,0.0422832981 108.154334,0.735729387 C108.858351,1.3551797 108.94926,2.28752643 108.968288,3.17124736 C109.02537,14.422833 109.141649,25.4608879 109.20296,36.7145877 C112.268499,36.7906977 115.32981,36.858351 118.395349,36.9133192 C119.338266,36.9112051 120.154334,37.2093023 121.035941,37.5073996 C122.915433,38.1627907 124.805497,38.7928118 126.682875,39.4587738 C127.057082,39.564482 127.346723,39.7674419 127.729387,39.5729387 C131.133192,38.1818182 134.536998,36.7885835 137.942918,35.4016913 C138.621564,35.1310782 139.249471,34.8287526 139.947146,34.6701903 C140.587738,34.4566596 141.361522,34.7293869 141.953488,35 C145.234672,36.6448203 148.520085,38.2917548 151.807611,39.9281184 C155.820296,38.5369979 159.837209,37.1501057 163.849894,35.7547569 C164.334038,35.5919662 164.839323,35.4397463 165.348837,35.3805497 C166.522199,35.448203 167.260042,36.0845666 168.245243,36.615222 C171.92389,38.6849894 175.638478,40.858351 179.325581,42.8900634 C181.141649,42.6701903 182.966173,42.2198732 184.77167,41.8921776 C185.837209,41.6173362 187.07611,42.0697674 187.560254,43.0951374 C187.742072,43.5792812 187.826638,44.1057082 187.913319,44.6131078 C189.207188,53.1374207 190.602537,61.6384778 191.680761,70.1945032 C191.701903,70.8054968 192.122622,71.1310782 192.460888,71.5940803 C194.64482,74.346723 196.811839,77.1120507 198.995772,79.8668076 C199.600423,80.5348837 199.845666,81.3107822 199.799154,82.2093023 C199.30444,89.2684989 198.811839,96.3255814 198.321353,103.384778 C198.251586,104.289641 198.219873,105.192389 197.758985,106.004228 C196.116279,108.871036 194.477801,111.744186 192.837209,114.615222 C192.454545,115.264271 192.004228,115.841438 191.236786,116.038055 C188.435518,116.737844 185.632135,117.437632 182.830867,118.139535 C182.097252,120.090909 181.38055,122.05074 180.655391,124.006342 C180.429175,124.596195 180.071882,125.078224 179.530655,125.414376 C178.276956,126.221987 176.997886,126.995772 175.731501,127.786469 C175.708245,130.433404 175.727273,133.082452 175.723044,135.729387 C175.691332,136.541226 175.58351,137.367865 174.957717,137.951374 C174.384778,138.522199 173.501057,138.630021 172.731501,138.638478 C168,138.632135 163.268499,138.636364 158.536998,138.636364 C155.917548,143.778013 153.317125,148.930233 150.723044,154.084567 C152.340381,159.566596 153.856237,165.078224 155.433404,170.572939 C155.665962,171.427061 155.957717,172.283298 156.107822,173.158562 C156.135307,174.112051 155.684989,174.883721 155.048626,175.55814 C154.224101,176.27907 153.376321,176.896406 152.215645,176.763214 C148.862579,176.289641 145.511628,175.801268 142.154334,175.357294 C142.748414,176.887949 143.260042,178.454545 143.792812,180.006342 C138.260042,179.234672 132.739958,178.283298 127.211416,177.45666 C122.124736,176.706131 117.048626,175.845666 111.959831,175.105708 C108.097252,168.843552 104.238901,162.536998 100.384778,156.264271 C100.057082,155.794926 100.07611,155.302326 99.9767442,154.754757 C99.8118393,153.520085 99.5983087,152.291755 99.435518,151.057082 C99.3868922,150.803383 99.3868922,150.463002 99.2093023,150.264271 C95.8794926,146.378436 92.4799154,142.541226 89.167019,138.642706 C84.4608879,138.625793 79.7526427,138.638478 75.0465116,138.636364 C74.2663848,138.608879 73.4735729,138.477801 72.9175476,137.879493 C72.3488372,137.321353 72.2389006,136.488372 72.217759,135.729387 C72.2198732,131.995772 72.2219873,128.257928 72.2156448,124.524313 C72.2241015,123.64482 72.3446089,122.716702 73.0528541,122.112051 C73.4587738,121.739958 73.9323467,121.653277 74.4397463,121.51797 C73.8350951,121.526427 73.230444,121.522199 72.627907,121.515856 C69.384778,125.22833 66.1733615,128.97463 62.9408034,132.697674 C62.4270613,133.321353 61.7124736,133.581395 60.9238901,133.64482 C59.8372093,133.51797 58.9788584,132.951374 57.9788584,132.5074 C56.6596195,131.902748 55.3615222,131.247357 54.0295983,130.665962 C52.8921776,132.139535 51.6997886,133.572939 50.5327696,135.023256 C48.1310782,133.868922 45.7399577,132.69556 43.3678647,131.479915 C40.5327696,130.192389 37.8224101,128.674419 34.987315,127.391121 C33.5856237,126.668076 32.167019,125.983087 30.7610994,125.270613 C30.4038055,125.128964 30.3742072,124.818182 30.2325581,124.503171 C28.4503171,119.727273 26.6553911,114.972516 24.8816068,110.196617 C24.7251586,109.67019 24.2769556,109.446089 23.8879493,109.088795 C18.5264271,104.653277 13.1839323,100.207188 7.81818182,95.7737844 C7.46300211,95.4883721 7.12896406,95.192389 6.89429175,94.794926 C4.61310782,91.0930233 2.3615222,87.3699789 0.0613107822,83.6807611 C2.97251586,83.6849894 5.88372093,83.6871036 8.794926,83.6786469 C7.66596195,81.6109937 6.53699789,79.5412262 5.397463,77.4778013 C4.99788584,76.7970402 4.52219873,75.8710359 4.64904863,75.0634249 C4.76744186,74.1479915 5.33615222,73.5792812 5.85200846,72.858351 C6.43551797,72.0338266 7.53065539,71.9302326 8.45665962,71.9175476 C21.9386892,71.9936575 35.4186047,72.0634249 48.9006342,72.154334 C48.9006342,51.2135307 48.9006342,30.2748414 48.8985201,9.33615222 C50.2811839,9.33403805 51.6638478,9.33615222 53.0443975,9.33615222 C53.0676533,7.20930233 53.0465116,5.08245243 53.0549683,2.95560254 C53.0866808,2.10782241 53.2325581,1.22621564 53.9344609,0.66807611 C54.7124736,0.0147991543 55.9196617,0.0761099366 56.8710359,0.0824524313 Z" id="Shape" fill="#000000" fill-rule="nonzero"></path>
                <path d="M55.4418605,2.47145877 C72.4841438,2.47357294 89.5285412,2.46934461 106.570825,2.47357294 C106.657505,14.6617336 106.756871,26.8731501 106.839323,39.0528541 C110.887949,39.1564482 114.985201,39.192389 119.023256,39.3509514 C121.849894,40.2452431 124.680761,41.2832981 127.496829,42.2367865 C131.813953,40.4630021 136.145877,38.7230444 140.45666,36.9302326 C144.179704,38.769556 147.887949,40.6448203 151.604651,42.4968288 C156.196617,40.9133192 160.788584,39.3234672 165.376321,37.7293869 C169.887949,40.2811839 174.389006,42.8477801 178.892178,45.4143763 C181.082452,45.0021142 183.266385,44.5687104 185.454545,44.1564482 C186.803383,52.9682875 188.234672,61.7632135 189.350951,70.6088795 C189.429175,71.0042283 189.40592,71.5348837 189.661734,71.8625793 C192.215645,75.1268499 194.862579,78.4207188 197.393235,81.6913319 C197.463002,82.2875264 197.346723,82.9175476 197.321353,83.5158562 C196.845666,90.3509514 196.363636,97.1902748 195.894292,104.02537 C195.877378,104.386892 195.809725,104.636364 195.623679,104.947146 C193.919662,107.894292 192.251586,110.864693 190.545455,113.809725 C187.369979,114.598309 184.198732,115.401691 181.023256,116.188161 C180.128964,118.579281 179.257928,120.978858 178.353066,123.367865 C176.674419,124.395349 175.006342,125.44186 173.334038,126.486258 C173.338266,129.739958 173.331924,132.993658 173.338266,136.247357 C167.911205,136.2537 162.48203,136.238901 157.054968,136.2537 C154.450317,141.424947 151.832981,146.587738 149.217759,151.752643 C148.881607,152.427061 148.551797,153.103594 148.160677,153.748414 C150.133192,160.257928 151.89852,166.830867 153.790698,173.361522 C153.473573,173.813953 153.099366,174.128964 152.64482,174.433404 C140.659619,172.744186 128.67019,171.071882 116.687104,169.382664 C112.767442,163.010571 108.849894,156.640592 104.930233,150.270613 C104.682875,149.845666 104.338266,149.418605 104.194503,148.945032 C104.082452,147.858351 104.061311,146.756871 103.983087,145.665962 C103.936575,145.236786 104.004228,144.860465 103.693446,144.51797 C101.649049,141.906977 99.6067653,139.293869 97.577167,136.674419 C97.4164905,136.511628 97.2875264,136.221987 97.0232558,136.2537 C89.6131078,136.241015 82.0317125,136.2537 74.6046512,136.247357 C74.602537,132.124736 74.602537,128.002114 74.6046512,123.877378 C77.8900634,123.87315 81.1754757,123.885835 84.4587738,123.871036 C82.8054968,121.761099 81.192389,119.621564 79.5369979,117.511628 C77.3361522,117.520085 75.1353066,117.513742 72.9344609,117.515856 C68.9534884,122.10148 64.9852008,126.701903 61.0105708,131.293869 C53.2219873,127.642706 45.4312896,123.938689 37.6469345,120.274841 C37.384778,120.186047 37.3298097,119.849894 37.230444,119.623679 C35.6744186,115.065539 34.0845666,110.515856 32.5221987,105.959831 C32.3953488,105.48203 31.9767442,105.260042 31.6257928,104.940803 C26.5243129,100.674419 21.4397463,96.3868922 16.3361522,92.1205074 C16.0042283,91.8625793 15.7970402,91.5243129 15.6046512,91.1585624 C12.7420719,85.8731501 9.80549683,80.6215645 6.9640592,75.3255814 C7.21353066,74.9894292 7.45877378,74.6511628 7.70190275,74.3128964 C23.5792812,74.3699789 39.5433404,74.4968288 55.4397463,74.5750529 C55.4439746,50.5391121 55.4397463,26.5052854 55.4418605,2.47145877 Z" id="Shape" fill="#FFFFFF" fill-rule="nonzero"></path>
                <path d="M58.3551797,5.65116279 C73.6342495,5.65327696 88.9112051,5.64904863 104.190275,5.65327696 C104.186047,17.845666 104.190275,30.0401691 104.188161,42.2325581 C108.570825,42.2325581 112.953488,42.2367865 117.336152,42.230444 C117.92389,42.2452431 118.587738,42.1585624 119.133192,42.3742072 C121.420719,43.2071882 123.714588,44.0147992 125.997886,44.8498943 C126.357294,44.961945 126.636364,45.1395349 127.021142,44.9915433 C131.268499,43.5391121 135.501057,42.0042283 139.761099,40.6004228 C143.606765,42.3107822 147.4926,43.9534884 151.35518,45.627907 C155.835095,44.2769556 160.312896,42.9302326 164.788584,41.5665962 C165.175476,41.4524313 165.435518,41.3678647 165.803383,41.5961945 C169.710359,43.6828753 173.630021,45.7484144 177.536998,47.832981 C177.987315,48.0465116 178.321353,48.3361522 178.854123,48.2135307 C180.395349,47.9957717 181.921776,47.6913319 183.471459,47.5095137 C183.915433,51.9894292 184.486258,56.4608879 184.964059,60.9386892 C185.446089,64.9830867 185.877378,69.192389 186.376321,73.2135307 C188.997886,76.4799154 191.723044,79.7674419 194.357294,83.0295983 C194.617336,83.2917548 194.51797,83.602537 194.526427,83.9408034 C194.014799,90.5877378 193.503171,97.3276956 192.983087,103.964059 C191.731501,106.124736 190.319239,108.262156 189.010571,110.397463 C185.572939,111.260042 182.150106,112.186047 178.706131,113.016913 C177.676533,115.226216 176.704017,117.465116 175.701903,119.687104 C175.471459,120.150106 175.365751,120.710359 174.875264,120.966173 C173.361522,121.940803 171.826638,122.885835 170.325581,123.881607 C143.196617,123.866808 116.048626,123.896406 88.9238901,123.866808 C88.0613108,122.701903 87.1183932,121.596195 86.230444,120.452431 C88.6913319,121.336152 91.243129,121.964059 93.832981,122.327696 C98.1691332,122.926004 102.754757,122.868922 107.010571,121.778013 C110.623679,120.845666 114.021142,119.128964 116.591966,116.382664 C119.147992,113.674419 120.579281,110.141649 120.932347,106.45666 C121.22833,103.154334 120.970402,99.6384778 119.439746,96.640592 C118.131078,94.0549683 116.029598,92.1205074 113.575053,90.6342495 C110.488372,88.7780127 106.877378,87.564482 103.420719,86.6004228 C101.002114,85.9534884 98.5750529,85.359408 96.1881607,84.5961945 C94.6680761,84.1035941 93.0761099,83.551797 91.7145877,82.7040169 C90.7463002,82.0951374 89.9471459,81.2854123 89.615222,80.1606765 C89.2536998,78.8181818 89.2727273,77.2790698 90.0169133,76.0634249 C90.7716702,74.8393235 91.9936575,74.0993658 93.3382664,73.6638478 C95.3424947,73.0295983 97.5496829,73.0359408 99.6131078,73.3382664 C104.264271,74.0190275 108.638478,76.3678647 112.46723,79.0084567 C114.727273,75.7145877 117.010571,72.435518 119.260042,69.1353066 C113.630021,64.564482 106.59408,61.9809725 99.3636364,61.6384778 C95.1141649,61.397463 90.9302326,61.8562368 86.9978858,63.5581395 C83.6300211,65.0147992 80.6997886,67.3636364 78.7970402,70.5264271 C76.961945,73.5475687 76.2536998,77.0401691 76.4143763,80.5496829 C76.5221987,83.9175476 77.3446089,87.192389 79.5073996,89.8435518 C81.8498943,92.7209302 85.2663848,94.3953488 88.6849894,95.6448203 C92.9661734,97.2325581 97.435518,98.0105708 101.739958,99.4883721 C103.300211,100.040169 105.008457,100.693446 106.319239,101.723044 C107.188161,102.399577 107.824524,103.327696 107.966173,104.437632 C108.086681,105.69556 108.065539,106.904863 107.378436,108.010571 C106.401691,109.625793 104.530655,110.45666 102.748414,110.824524 C100.069767,111.365751 97.205074,111.171247 94.5433404,110.621564 C89.6871036,109.575053 85.5475687,107.044397 81.7547569,103.921776 C79.1691332,107.002114 76.6046512,110.099366 74.0190275,113.179704 C74.217759,113.359408 74.4143763,113.539112 74.6109937,113.718816 C73.3615222,113.716702 72.1099366,113.627907 70.8604651,113.579281 C67.2156448,118.069767 63.6109937,122.596195 59.9830867,127.10148 C57.5433404,125.989429 55.1691332,124.744186 52.7653277,123.556025 C50.5179704,122.526427 48.3340381,121.357294 46.1099366,120.276956 C44.4270613,119.513742 42.7970402,118.630021 41.1289641,117.830867 C40.8604651,117.672304 40.5708245,117.621564 40.4651163,117.295983 C38.7040169,112.591966 36.9048626,107.805497 35.154334,103.116279 C35.0443975,102.786469 34.8794926,102.598309 34.6109937,102.382664 C29.4460888,98.1120507 24.2832981,93.8266385 19.1226216,89.5496829 C18.6342495,89.1522199 18.1522199,88.8372093 17.8160677,88.2875264 C15.5983087,84.6934461 13.4122622,81.0739958 11.1775899,77.4904863 C26.9027484,77.4883721 42.6257928,77.4883721 58.3488372,77.4904863 C58.3615222,53.5454545 58.3509514,29.5983087 58.3551797,5.65116279 Z" id="Shape" fill="#000000" fill-rule="nonzero"></path>
                <path d="M74.6997886,47.8858351 C107.606765,47.8942918 140.515856,47.8858351 173.420719,47.8879493 C173.427061,52.0105708 173.422833,56.1331924 173.422833,60.255814 C140.513742,60.2600423 107.602537,60.2579281 74.6934461,60.2579281 C74.6955603,56.1331924 74.6849894,52.0084567 74.6997886,47.8858351 Z" id="Shape" fill="#FFFFFF" fill-rule="nonzero"></path>
                <path d="M76.2790698,49.4926004 C106.877378,49.4820296 137.477801,49.4904863 168.07611,49.4883721 C169.331924,49.5179704 170.581395,49.422833 171.835095,49.4947146 C171.824524,52.551797 171.839323,55.6109937 171.826638,58.6680761 C140.414376,58.6680761 109.002114,58.6638478 77.589852,58.6701903 C77.2283298,58.6384778 76.5983087,58.7526427 76.2980973,58.5856237 C76.2494715,55.5623679 76.2875264,52.5179704 76.2790698,49.4926004 Z" id="Shape" fill="#BC141B" fill-rule="nonzero"></path>
                <path d="M121.830867,62.4376321 C130.799154,62.4038055 139.858351,62.4334038 148.837209,62.4249471 C153.714588,62.4291755 158.704017,63.2642706 162.928118,65.8266385 C165.668076,67.4778013 167.934461,69.8752643 169.348837,72.7505285 C171.196617,76.4439746 171.627907,80.7103594 171.241015,84.7801268 C170.875264,88.3128964 169.668076,91.7082452 167.437632,94.4989429 C165.173362,97.3699789 162.061311,99.3657505 158.661734,100.638478 C163.486258,107.710359 168.325581,114.77167 173.150106,121.843552 C168.054968,121.852008 162.957717,121.841438 157.862579,121.84778 C153.608879,115.524313 149.382664,109.181818 145.139535,102.849894 C141.729387,102.843552 138.321353,102.849894 134.911205,102.84778 C134.911205,109.179704 134.911205,115.511628 134.911205,121.843552 C130.545455,121.84778 126.179704,121.845666 121.811839,121.845666 C121.813953,102.653277 121.811839,83.4630021 121.813953,64.2706131 C121.818182,63.6617336 121.790698,63.0465116 121.830867,62.4376321 Z" id="Shape" fill="#FFFFFF" fill-rule="nonzero"></path>
                <path d="M101.900634,63.4460888 C107.382664,64.0634249 112.640592,66.243129 117.107822,69.4566596 C115.463002,71.9386892 113.733615,74.3657505 112.052854,76.8266385 C110.061311,75.5348837 108.008457,74.3784355 105.811839,73.4693446 C102.623679,72.192389 99.0063425,71.3044397 95.5581395,71.6236786 C93.8794926,71.8414376 91.9852008,72.2410148 90.5919662,73.2494715 C89.3298097,74.0739958 88.3065539,75.4186047 88.0084567,76.9112051 C87.615222,78.3911205 87.8350951,79.9682875 88.3868922,81.3742072 C89.2706131,83.2663848 91.2029598,84.3953488 93.0613108,85.154334 C97.5961945,86.961945 102.530655,87.7124736 107.183932,89.4270613 C110.042283,90.4714588 113.109937,91.845666 115.372093,93.9196617 C116.794926,95.1966173 117.890063,96.7737844 118.560254,98.5665962 C119.488372,100.852008 119.477801,103.27907 119.397463,105.708245 C119.283298,108.77167 118.181818,111.788584 116.346723,114.236786 C115.156448,115.710359 113.72093,117.048626 112.07611,118 C109.490486,119.524313 106.572939,120.496829 103.591966,120.841438 C99.627907,121.342495 95.5602537,121.143763 91.6448203,120.365751 C86.1205074,119.211416 80.6469345,116.617336 76.2663848,113.05074 C76.5264271,112.678647 76.7885835,112.308668 77.0909091,111.966173 C78.7399577,110.035941 80.3255814,108.046512 81.9936575,106.133192 C84.8837209,108.342495 87.9048626,110.221987 91.3784355,111.372093 C94.5433404,112.384778 98.0528541,112.993658 101.374207,112.636364 C103.636364,112.321353 105.775899,111.843552 107.524313,110.27907 C109.716702,108.369979 110.179704,105.023256 108.972516,102.446089 C108.071882,100.712474 106.264271,99.6511628 104.539112,98.8773784 C100.207188,97.0147992 95.2663848,96.230444 90.7357294,94.6849894 C87.8160677,93.7040169 84.6617336,92.448203 82.2917548,90.4334038 C80.0739958,88.5919662 78.6786469,85.9196617 78.2325581,83.0887949 C77.8668076,80.5073996 77.8435518,77.8118393 78.4799154,75.2706131 C79.1205074,72.9830867 80.2600423,70.744186 81.9090909,69.0169133 C83.6786469,67.0613108 85.9260042,65.6596195 88.372093,64.7061311 C92.5454545,62.9915433 97.4799154,62.9386892 101.900634,63.4460888 Z" id="Shape" fill="#BC141B" fill-rule="nonzero"></path>
                <path d="M123.393235,64.0105708 C131.945032,64.012685 140.496829,64.0105708 149.048626,64.012685 C150.598309,64.0274841 152.158562,64.1099366 153.693446,64.3255814 C156.866808,64.7188161 159.993658,65.8033827 162.684989,67.5433404 C165.4926,69.3826638 167.58351,72.1057082 168.708245,75.2663848 C169.575053,77.5306554 169.739958,79.8393235 169.801268,82.2410148 C169.733615,84.1226216 169.623679,85.9450317 169.107822,87.7674419 C168.556025,89.6384778 167.729387,91.4312896 166.585624,93.0169133 C164.634249,95.6744186 161.92389,97.6046512 158.885835,98.8372093 C158.323467,99.0887949 157.646934,99.2473573 157.353066,99.845666 C157.014799,100.477801 157.078224,101.122622 157.479915,101.706131 C161.697674,107.877378 165.934461,114.080338 170.156448,120.245243 C166.323467,120.249471 162.490486,120.270613 158.659619,120.234672 C154.636364,114.183932 150.575053,108.141649 146.53277,102.103594 C146.086681,101.369979 145.408034,101.266385 144.613108,101.2537 C141.653277,101.245243 138.689218,101.260042 135.729387,101.247357 C135.084567,101.266385 134.353066,101.247357 133.843552,101.712474 C133.357294,102.158562 133.319239,102.761099 133.306554,103.382664 C133.312896,109.004228 133.308668,114.630021 133.308668,120.251586 C130.004228,120.249471 126.699789,120.257928 123.393235,120.249471 C123.389006,101.503171 123.391121,82.756871 123.393235,64.0105708 Z" id="Shape" fill="#BC141B" fill-rule="nonzero"></path>
                <path d="M135.51797,72.6448203 C139.816068,72.6596195 144.116279,72.6300211 148.414376,72.6596195 C151.473573,72.8181818 154.623679,73.4630021 156.915433,75.640592 C158.877378,77.4841438 159.642706,80.0295983 159.699789,82.6638478 C159.735729,84.0190275 159.437632,85.3995772 159,86.6765328 C157.976744,89.3213531 155.69556,91.255814 153.023256,92.1099366 C151.541226,92.5539112 149.966173,92.8625793 148.414376,92.8689218 C144.046512,92.8625793 139.674419,92.8668076 135.306554,92.8668076 C134.706131,92.858351 134.141649,92.7547569 133.725159,92.2854123 C133.327696,91.8393235 133.319239,91.2642706 133.306554,90.6976744 C133.315011,85.8350951 133.308668,80.9725159 133.310782,76.1099366 C133.342495,75.2790698 133.17759,74.2473573 133.536998,73.4820296 C133.976744,72.7505285 134.731501,72.6469345 135.51797,72.6448203 Z" id="Shape" fill="#FFFFFF" fill-rule="nonzero"></path>
                <path d="M134.926004,74.255814 C139.200846,74.2219873 143.501057,74.2515856 147.780127,74.243129 C150.359408,74.2536998 153.112051,74.6786469 155.219873,76.2769556 C156.92389,77.5391121 157.864693,79.5200846 158.054968,81.6046512 C158.141649,82.7209302 158.139535,83.8900634 157.879493,84.9830867 C157.498943,86.6596195 156.545455,88.1712474 155.179704,89.217759 C153.30444,90.6807611 150.756871,91.2600423 148.418605,91.2748414 C143.915433,91.2727273 139.412262,91.2769556 134.909091,91.2727273 C134.92389,85.6109937 134.887949,79.9112051 134.926004,74.255814 Z" id="Shape" fill="#000000" fill-rule="nonzero"></path>
                <path d="M52.627907,81.0887949 C54.0697674,85.422833 55.4249471,89.782241 56.8520085,94.1205074 C61.4164905,94.1310782 65.9894292,94.1078224 70.5496829,94.1183932 C69.5560254,94.9344609 68.4756871,95.640592 67.4460888,96.410148 C64.7780127,98.3128964 62.1522199,100.274841 59.4693446,102.154334 C60.8562368,106.511628 62.3636364,110.832981 63.6955603,115.205074 C59.9936575,112.541226 56.3213531,109.835095 52.6194503,107.169133 C48.9090909,109.820296 45.2579281,112.55814 41.5433404,115.20296 C42.8921776,110.835095 44.3699789,106.503171 45.7674419,102.150106 C44.5285412,101.308668 43.3255814,100.408034 42.1120507,99.5327696 C39.640592,97.7209302 37.1162791,95.97463 34.6786469,94.1183932 C39.255814,94.0782241 43.8435518,94.1860465 48.4186047,94.0803383 C49.6934461,90.0211416 51.0295983,85.9767442 52.3276956,81.9238901 L52.3784355,81.7737844 C52.4608879,81.5454545 52.5433404,81.3171247 52.627907,81.0887949 Z" id="Shape" fill="#FFFFFF" fill-rule="nonzero"></path>
                <path d="M52.6131078,89.5856237 L52.6511628,89.6871036 C53.4778013,92.0147992 54.192389,94.3826638 54.9577167,96.7293869 C57.4735729,96.756871 59.9894292,96.7103594 62.5052854,96.7526427 C60.4947146,98.2283298 58.4693446,99.6934461 56.4376321,101.143763 C57.1226216,103.566596 58.0232558,105.930233 58.7293869,108.346723 C56.6680761,106.917548 54.6701903,105.393235 52.627907,103.932347 C50.5750529,105.38055 48.5750529,106.904863 46.5179704,108.346723 C47.2346723,105.936575 48.0803383,103.564482 48.8181818,101.160677 C47.0274841,99.8921776 45.2706131,98.5729387 43.4735729,97.3128964 C43.2494715,97.1458774 43.0443975,96.9513742 42.8435518,96.756871 C45.3234672,96.7040169 47.8054968,96.7610994 50.2854123,96.7272727 C50.9915433,94.564482 51.6575053,92.3868922 52.3805497,90.230444 C52.4566596,90.0147992 52.5327696,89.7991543 52.6131078,89.5856237 Z" id="Shape" fill="#000000" fill-rule="nonzero"></path>
                <path d="M76.2156448,125.486258 C76.3890063,125.473573 76.5623679,125.465116 76.7378436,125.463002 C108.403805,125.475687 140.078224,125.45666 171.7463,125.473573 C171.756871,128.530655 171.7463,131.589852 171.750529,134.646934 C139.900634,134.657505 108.046512,134.653277 76.1945032,134.649049 C76.2135307,131.600423 76.1691332,128.534884 76.2156448,125.486258 Z" id="Shape" fill="#BC141B" fill-rule="nonzero"></path>
                <path d="M102.137421,136.243129 C119.02537,136.262156 135.919662,136.230444 152.807611,136.260042 C149.84778,141.909091 146.926004,147.606765 144.012685,153.281184 C144.147992,153.917548 144.429175,154.526427 144.638478,155.143763 C146.435518,160.27907 148.281184,165.403805 150.065539,170.545455 C146.054968,170.010571 142.063425,169.310782 138.059197,168.72093 C131.841438,167.742072 125.51797,166.788584 119.315011,165.79704 C119.004228,165.530655 118.809725,165.057082 118.581395,164.714588 C115.073996,158.993658 111.560254,153.27907 108.05074,147.560254 C107.780127,147.150106 107.756871,146.575053 107.676533,146.095137 C107.490486,144.710359 107.247357,143.331924 107.07611,141.942918 C105.41649,140.054968 103.773784,138.15222 102.137421,136.243129 Z" id="Shape" fill="#000000" fill-rule="nonzero"></path>
            </g>
        </g>
    </g>
</svg>